<?xml version="1.0" encoding="UTF-8"?>
<svg width="90px" height="34px" viewBox="0 0 90 34" version="1.1" xmlns="http://www.w3.org/2000/svg" xmlns:xlink="http://www.w3.org/1999/xlink">
    <!-- Generator: Sketch 54.1 (76490) - https://sketchapp.com -->
    <title>02 Skip</title>
    <desc>Created with Sketch.</desc>
    <g id="Page-1" stroke="none" stroke-width="1" fill="none" fill-rule="evenodd">
        <g id="Screen-6.0-Vergleich" transform="translate(-1415.000000, -785.000000)">
            <g id="02-Skip" transform="translate(1416.000000, 786.000000)">
                <path d="M70.5917393,15.9991303 L87.6845624,1.54747277 C88.1051459,1.1918774 88.1051459,0.622103292 87.6845624,0.266507919 C87.2643755,-0.0888359729 86.5900736,-0.0888359729 86.1698867,0.266507919 L68.3152145,15.3622944 C67.8949285,15.7175544 67.8949285,16.2876638 68.3152145,16.6429239 L86.1698867,31.7318365 C86.3759151,31.9063649 86.6536271,32 86.9231099,32 C87.1926918,32 87.4704039,31.9129034 87.6768289,31.7318365 C88.0970158,31.3765764 88.0970158,30.806467 87.6768289,30.4512069 L70.5917393,15.9991303 Z" id="Fill-1" stroke="#009FE3" fill="#009FE3" transform="translate(78.000000, 16.000000) scale(-1, 1) translate(-78.000000, -16.000000) "></path>
                <path d="M2.59173928,15.9991303 L19.6845624,1.54747277 C20.1051459,1.1918774 20.1051459,0.622103292 19.6845624,0.266507919 C19.2643755,-0.0888359729 18.5900736,-0.0888359729 18.1698867,0.266507919 L0.315214549,15.3622944 C-0.105071516,15.7175544 -0.105071516,16.2876638 0.315214549,16.6429239 L18.1698867,31.7318365 C18.3759151,31.9063649 18.6536271,32 18.9231099,32 C19.1926918,32 19.4704039,31.9129034 19.6768289,31.7318365 C20.0970158,31.3765764 20.0970158,30.806467 19.6768289,30.4512069 L2.59173928,15.9991303 Z" id="Fill-1" stroke="#706F6F" fill="#706F6F"></path>
            </g>
        </g>
    </g>
</svg>