<?xml version="1.0" encoding="UTF-8"?>
<svg width="100px" height="114px" viewBox="0 0 100 114" version="1.1" xmlns="http://www.w3.org/2000/svg" xmlns:xlink="http://www.w3.org/1999/xlink">
    <!-- Generator: Sketch 54.1 (76490) - https://sketchapp.com -->
    <title>01 Icon</title>
    <desc>Created with Sketch.</desc>
    <g id="Page-1" stroke="none" stroke-width="1" fill="none" fill-rule="evenodd">
        <g id="Screen-6.0.2-Vergleich" transform="translate(-912.000000, -61.000000)">
            <g id="02-Icons" transform="translate(915.000000, 61.000000)">
                <g id="01-Icon">
                    <path d="M47,111 C72.9578297,111 94,89.9572793 94,63.9987704 C94,38.0427207 72.9578297,17 47,17 C21.0421703,17 0,38.0427207 0,63.9987704 C0,89.9572793 21.0421703,111 47,111 Z" id="Stroke-1" stroke="#009FE3" stroke-width="5"></path>
                    <polygon id="Fill-3" fill="#009FE3" points="33 0 33 6.37468764 43.3848033 6.37468764 43.3848033 17 49.6151967 17 49.6151967 6.37468764 60 6.37468764 60 0"></polygon>
                    <polygon id="Fill-4" fill="#009FE3" points="77 28.3954421 81.6045579 33 91 23.6045579 86.3954421 19"></polygon>
                    <path d="M46.5278101,46 C38.9368562,46 33,54.7172482 33,65.7665466 C33,71.3495592 34.184953,76.0608469 36.5596955,79.7836831 C38.9948948,83.6182789 42.7891626,86 46.5278101,86 C50.0391402,86 53.8914465,83.6182789 56.2686073,80.074258 C58.69897,76.2346951 60,71.3495592 60,65.8832733 C60,54.6005215 54.1743842,46 46.5278101,46 M46.4721899,49.9463554 C51.739185,49.9463554 55.874429,56.9847262 55.874429,66 C55.874429,74.838942 51.6811464,81.9940395 46.5278101,81.9940395 C41.0891178,81.9940395 37.125571,75.2462436 37.125571,65.8832733 C37.125571,56.8679995 41.2027765,49.9463554 46.4721899,49.9463554" id="Fill-5" fill="#009FE3"></path>
                </g>
            </g>
        </g>
    </g>
</svg>