<?xml version="1.0" encoding="UTF-8"?>
<svg width="20px" height="20px" viewBox="0 0 20 20" version="1.1" xmlns="http://www.w3.org/2000/svg" xmlns:xlink="http://www.w3.org/1999/xlink">
    <!-- Generator: Sketch 54.1 (76490) - https://sketchapp.com -->
    <title>Close Icon</title>
    <desc>Created with Sketch.</desc>
    <defs>
        <polygon id="path-1" points="1.04986877e-05 0.0441049869 19.9559055 0.0441049869 19.9559055 20 1.04986877e-05 20"></polygon>
    </defs>
    <g id="Page-1" stroke="none" stroke-width="1" fill="none" fill-rule="evenodd">
        <g id="Screen-5.2.2-Dämmplatten" transform="translate(-1200.000000, -278.000000)">
            <g id="02-Tabelle" transform="translate(766.000000, 267.000000)">
                <g id="Close-Icon" transform="translate(434.000000, 11.000000)">
                    <g id="Group-3">
                        <mask id="mask-2" fill="white">
                            <use xlink:href="#path-1"></use>
                        </mask>
                        <g id="Clip-2"></g>
                        <path d="M16.2309291,16.2750236 C14.5595381,17.9464147 12.3380157,18.8660472 9.97785827,18.8660472 C7.61791076,18.8660472 5.39638845,17.9464147 3.72499738,16.2750236 C0.277228346,12.8272546 0.277228346,7.21686089 3.72499738,3.76909186 C5.39638845,2.09770079 7.61791076,1.17806824 9.97785827,1.17806824 C12.3380157,1.17806824 14.5595381,2.09770079 16.2309291,3.76909186 C19.6786982,7.21686089 19.6786982,12.8272546 16.2309291,16.2750236 M17.0330814,2.96693963 C15.1474121,1.08148031 12.6445774,0.0441049869 9.97785827,0.0441049869 C7.31134908,0.0441049869 4.80851444,1.08148031 2.92284514,2.96693963 C1.03738583,4.85260892 1.04986877e-05,7.35544357 1.04986877e-05,10.0219528 C1.04986877e-05,12.6886719 1.03738583,15.1915066 2.92284514,17.0771759 C4.80851444,18.9626352 7.31134908,20.0000105 9.97785827,20.0000105 C12.6445774,20.0000105 15.1474121,18.9626352 17.0330814,17.0771759 C18.9185407,15.1915066 19.955916,12.6886719 19.955916,10.0219528 C19.955916,7.35544357 18.9185407,4.85260892 17.0330814,2.96693963" id="Fill-1" fill="#009FE3" mask="url(#mask-2)"></path>
                    </g>
                    <path d="M14.8354814,6.1646545 C14.6161232,5.94511517 14.2641046,5.94511517 14.0445393,6.1646545 L10.4999741,9.70880187 L6.9556677,6.1646545 C6.73605072,5.94511517 6.38408385,5.94511517 6.16467391,6.1646545 C5.9451087,6.38403857 5.9451087,6.73596396 6.16467391,6.95555504 L9.70923913,10.4994436 L6.16467391,14.043591 C5.9451087,14.2631304 5.9451087,14.6151075 6.16467391,14.8344398 C6.27223085,14.9421911 6.41721014,15 6.55815217,15 C6.69888716,15 6.8438147,14.9462279 6.9514234,14.8344398 L10.4959369,11.2903442 L14.0405021,14.8344398 C14.148059,14.9421911 14.2930383,15 14.4337215,15 C14.5787008,15 14.7196429,14.9462279 14.8271998,14.8344398 C15.046765,14.6151075 15.046765,14.2631304 14.8271998,14.043591 L11.2909679,10.4994436 L14.8354814,6.95555504 C15.0548395,6.73596396 15.0548395,6.38403857 14.8354814,6.1646545" id="Fill-4" fill="#009FE3"></path>
                </g>
            </g>
        </g>
    </g>
</svg>