<?xml version="1.0" encoding="UTF-8"?>
<svg width="100px" height="100px" viewBox="0 0 100 100" version="1.1" xmlns="http://www.w3.org/2000/svg" xmlns:xlink="http://www.w3.org/1999/xlink">
    <!-- Generator: Sketch 54.1 (76490) - https://sketchapp.com -->
    <title>Group</title>
    <desc>Created with Sketch.</desc>
    <defs>
        <polygon id="path-1" points="0 0 30 0 30 54 0 54"></polygon>
    </defs>
    <g id="Page-1" stroke="none" stroke-width="1" fill="none" fill-rule="evenodd">
        <g id="Screen-6.0.1-Vergleich" transform="translate(-354.000000, -234.000000)">
            <g id="03-Mit-Dämmung" transform="translate(75.000000, -5.000000)">
                <g id="Temperatur-mit-Dämmung" transform="translate(282.000000, 242.000000)">
                    <g id="Group">
                        <g id="Icon-01" fill-rule="nonzero" stroke="#FF0000" stroke-width="5">
                            <circle id="Oval-3" cx="47" cy="47" r="47"></circle>
                        </g>
                        <g id="Group-3" transform="translate(32.000000, 20.000000)">
                            <mask id="mask-2" fill="white">
                                <use xlink:href="#path-1"></use>
                            </mask>
                            <g id="Clip-2"></g>
                            <path d="M21.318875,9.17168358 L29.997701,9.17168358 L29.997701,6.87049352 L21.318875,6.87049352 L21.318875,9.17168358 Z M21.321174,14.1875219 L26.3606407,14.1875219 L26.3606407,11.8863318 L21.321174,11.8863318 L21.321174,14.1875219 Z M21.321174,19.2033602 L30,19.2033602 L30,16.9021701 L21.321174,16.9021701 L21.321174,19.2033602 Z M21.321174,24.2215611 L26.3606407,24.2215611 L26.3606407,21.920371 L21.321174,21.920371 L21.321174,24.2215611 Z M21.321174,29.2350368 L30,29.2350368 L30,26.9338467 L21.321174,26.9338467 L21.321174,29.2350368 Z M22.6730018,42.34993 C22.6730018,48.7738887 17.5875546,54 11.3365009,54 C5.08544716,54 0,48.7738887 0,42.34993 C0,38.1869968 2.12659974,34.4020826 5.59813012,32.3088029 L5.59813012,5.89709485 C5.59813012,2.64613231 8.17304008,0 11.3365009,0 C14.4999617,0 17.0748716,2.64613231 17.0748716,5.89709485 L17.0748716,32.3088029 C20.546402,34.39972 22.6730018,38.1846342 22.6730018,42.34993 L22.6730018,42.34993 Z M20.4337497,42.34993 C20.4337497,38.8154533 18.5255575,35.6235562 15.4494597,34.0193385 L14.8356196,33.6980224 L14.8356196,5.89945747 C14.8356196,3.91485824 13.2676833,2.30355268 11.3365009,2.30355268 C9.40761744,2.30355268 7.83738217,3.91485824 7.83738217,5.89945747 L7.83738217,33.6980224 L7.22584106,34.0193385 C4.14974328,35.6259188 2.23925205,38.8178159 2.23925205,42.34993 C2.23925205,47.5051628 6.32002452,51.6988099 11.3365009,51.6988099 C16.3529772,51.6988099 20.4337497,47.5051628 20.4337497,42.34993 L20.4337497,42.34993 Z M18.569239,42.34993 C18.569239,46.4467098 15.3253123,49.780364 11.3365009,49.780364 C7.3499885,49.780364 4.10606177,46.4467098 4.10606177,42.34993 C4.10606177,38.990287 6.31312744,36.0417396 9.47658824,35.1770214 L9.89041306,35.0636157 L9.89041306,9.48354918 L12.7825887,9.48354918 L12.7825887,35.0612531 L13.1987125,35.1770214 C16.3621733,36.0417396 18.569239,38.990287 18.569239,42.34993 L18.569239,42.34993 Z M11.6951491,37.3955198 C11.522722,36.6087679 10.7525481,36.0913546 9.96857997,36.2756388 C7.22584106,36.9135457 5.31075178,39.3753938 5.31075178,42.2672384 C5.31075178,43.0847042 5.95907732,43.7509625 6.7568396,43.7509625 C7.55230286,43.7509625 8.2006284,43.0847042 8.2006284,42.2672384 C8.2006284,40.7976899 9.20990114,39.4958873 10.6054104,39.1722086 C11.3801824,38.9879244 11.8698751,38.1917221 11.6951491,37.3955198 L11.6951491,37.3955198 Z" id="Fill-1" fill="#FF0000" mask="url(#mask-2)"></path>
                        </g>
                    </g>
                </g>
            </g>
        </g>
    </g>
</svg>