<?xml version="1.0" encoding="UTF-8"?>
<svg width="22px" height="22px" viewBox="0 0 22 22" version="1.1" xmlns="http://www.w3.org/2000/svg" xmlns:xlink="http://www.w3.org/1999/xlink">
    <!-- Generator: Sketch 54.1 (76490) - https://sketchapp.com -->
    <title>05 Zoom Icon</title>
    <desc>Created with Sketch.</desc>
    <defs>
        <polygon id="path-1" points="1.1023622e-05 0.0463102362 20.9537008 0.0463102362 20.9537008 21 1.1023622e-05 21"></polygon>
    </defs>
    <g id="Page-1" stroke="none" stroke-width="1" fill="none" fill-rule="evenodd">
        <g id="Screen-3.0.1-Ursprung" transform="translate(-1061.000000, -585.000000)">
            <g id="05-Zoom-Icon" transform="translate(1071.849242, 595.849242) rotate(45.000000) translate(-1071.849242, -595.849242) translate(1061.349242, 585.349242)">
                <g id="Group-3">
                    <mask id="mask-2" fill="white">
                        <use xlink:href="#path-1"></use>
                    </mask>
                    <g id="Clip-2"></g>
                    <path d="M17.0424756,17.0887748 C15.287515,18.8437354 12.9549165,19.8093496 10.4767512,19.8093496 C7.9988063,19.8093496 5.66620787,18.8437354 3.91124724,17.0887748 C0.291089764,13.4686173 0.291089764,7.57770394 3.91124724,3.95754646 C5.66620787,2.20258583 7.9988063,1.23697165 10.4767512,1.23697165 C12.9549165,1.23697165 15.287515,2.20258583 17.0424756,3.95754646 C20.6626331,7.57770394 20.6626331,13.4686173 17.0424756,17.0887748 M17.8847354,3.11528661 C15.9047827,1.13555433 13.2768063,0.0463102362 10.4767512,0.0463102362 C7.67691654,0.0463102362 5.04894016,1.13555433 3.0689874,3.11528661 C1.08925512,5.09523937 1.1023622e-05,7.72321575 1.1023622e-05,10.5230504 C1.1023622e-05,13.3231055 1.08925512,15.9510819 3.0689874,17.9310346 C5.04894016,19.9107669 7.67691654,21.000011 10.4767512,21.000011 C13.2768063,21.000011 15.9047827,19.9107669 17.8847354,17.9310346 C19.8644677,15.9510819 20.9537118,13.3231055 20.9537118,10.5230504 C20.9537118,7.72321575 19.8644677,5.09523937 17.8847354,3.11528661" id="Fill-1" fill="#009FE3" mask="url(#mask-2)"></path>
                </g>
                <path d="M14.8354814,6.1646545 C14.6161232,5.94511517 14.2641046,5.94511517 14.0445393,6.1646545 L10.4999741,9.70880187 L6.9556677,6.1646545 C6.73605072,5.94511517 6.38408385,5.94511517 6.16467391,6.1646545 C5.9451087,6.38403857 5.9451087,6.73596396 6.16467391,6.95555504 L9.70923913,10.4994436 L6.16467391,14.043591 C5.9451087,14.2631304 5.9451087,14.6151075 6.16467391,14.8344398 C6.27223085,14.9421911 6.41721014,15 6.55815217,15 C6.69888716,15 6.8438147,14.9462279 6.9514234,14.8344398 L10.4959369,11.2903442 L14.0405021,14.8344398 C14.148059,14.9421911 14.2930383,15 14.4337215,15 C14.5787008,15 14.7196429,14.9462279 14.8271998,14.8344398 C15.046765,14.6151075 15.046765,14.2631304 14.8271998,14.043591 L11.2909679,10.4994436 L14.8354814,6.95555504 C15.0548395,6.73596396 15.0548395,6.38403857 14.8354814,6.1646545" id="Fill-4" fill="#009FE3"></path>
            </g>
        </g>
    </g>
</svg>