<svg width="22" height="21" viewBox="0 0 22 21" fill="none" xmlns="http://www.w3.org/2000/svg">
<path d="M20.5 7.23857V8.12473C20.5 8.52208 20.39 8.91202 20.1818 9.25316C19.9735 9.59431 19.6747 9.87394 19.317 10.0624L12.839 13.474M1 7.23857V8.12473C0.999984 8.52208 1.10995 8.91202 1.31824 9.25316C1.52652 9.59431 1.82534 9.87394 2.183 10.0624L8.661 13.474M8.661 13.474L9.683 12.9361C10.0109 12.7633 10.3775 12.6729 10.75 12.6729C11.1225 12.6729 11.4891 12.7633 11.817 12.9361L12.84 13.474L17.5 15.9291M8.661 13.474L4 15.9291M20.5 17.5087C20.5 18.0924 20.2629 18.6522 19.841 19.0649C19.419 19.4776 18.8467 19.7095 18.25 19.7095H3.25C2.65326 19.7095 2.08097 19.4776 1.65901 19.0649C1.23705 18.6522 1 18.0924 1 17.5087V7.08598C0.999984 6.68864 1.10995 6.2987 1.31824 5.95755C1.52652 5.61641 1.82534 5.33678 2.183 5.14835L9.683 1.19777C10.0109 1.02501 10.3775 0.93457 10.75 0.93457C11.1225 0.93457 11.4891 1.02501 11.817 1.19777L19.317 5.14835C19.6745 5.3367 19.9732 5.61617 20.1815 5.95713C20.3898 6.29809 20.4998 6.68782 20.5 7.08501V17.5087Z" stroke="#414141" stroke-width="1.5" stroke-linecap="round" stroke-linejoin="round"/>
</svg>
