<svg width="14" height="23" viewBox="0 0 14 23" fill="none" xmlns="http://www.w3.org/2000/svg">
<path d="M5.5 1H3.25C2.65326 1 2.08097 1.23186 1.65901 1.64458C1.23705 2.0573 1 2.61707 1 3.20075V19.3395C1 19.9232 1.23705 20.483 1.65901 20.8957C2.08097 21.3084 2.65326 21.5403 3.25 21.5403H10.75C11.3467 21.5403 11.919 21.3084 12.341 20.8957C12.7629 20.483 13 19.9232 13 19.3395V3.20075C13 2.61707 12.7629 2.0573 12.341 1.64458C11.919 1.23186 11.3467 1 10.75 1H8.5M5.5 1V2.46716H8.5V1M5.5 1H8.5M5.5 19.3395H8.5" stroke="#4A4A4A" stroke-width="1.5" stroke-linecap="round" stroke-linejoin="round"/>
</svg>
